<?xml version="1.0" standalone="no"?>
<!DOCTYPE svg PUBLIC "-//W3C//DTD SVG 20010904//EN"
 "http://www.w3.org/TR/2001/REC-SVG-20010904/DTD/svg10.dtd">
<svg version="1.0" xmlns="http://www.w3.org/2000/svg"
 width="512.000000pt" height="512.000000pt" viewBox="0 0 512.000000 512.000000"
 preserveAspectRatio="xMidYMid meet">

<g transform="translate(0.000000,512.000000) scale(0.100000,-0.100000)"
fill="#fff" stroke="none">
<path d="M2370 5114 c-19 -2 -78 -9 -130 -15 -545 -62 -1086 -327 -1489 -730
-402 -402 -652 -911 -732 -1489 -18 -125 -18 -515 0 -640 80 -579 329 -1086
732 -1489 403 -403 910 -652 1489 -732 55 -8 189 -14 320 -14 315 0 521 32
800 125 776 256 1374 854 1630 1630 93 279 125 485 125 800 0 315 -32 521
-125 800 -306 929 -1099 1591 -2075 1736 -96 14 -472 27 -545 18z m500 -360
c830 -118 1525 -696 1789 -1490 84 -250 114 -436 114 -704 0 -268 -30 -454
-114 -704 -264 -796 -946 -1363 -1794 -1492 -149 -22 -461 -22 -610 0 -574 88
-1075 373 -1426 813 -539 676 -637 1609 -249 2378 319 631 913 1070 1610 1190
207 36 464 39 680 9z"/>
<path d="M2068 3474 c-61 -33 -59 4 -58 -893 0 -449 4 -831 9 -848 14 -49 30
-72 61 -88 39 -20 76 -19 127 5 41 18 1135 772 1182 814 32 29 53 82 46 116
-3 16 -26 46 -49 67 -67 59 -1167 818 -1205 831 -45 16 -80 14 -113 -4z"/>
</g>
</svg>
